<?xml version="1.0" standalone="no"?>
<!DOCTYPE svg PUBLIC "-//W3C//DTD SVG 20010904//EN"
 "http://www.w3.org/TR/2001/REC-SVG-20010904/DTD/svg10.dtd">
<svg version="1.0" xmlns="http://www.w3.org/2000/svg"
 width="345.000000pt" height="224.000000pt" viewBox="0 0 345.000000 224.000000"
 preserveAspectRatio="xMidYMid meet">

<g transform="translate(0.000000,224.000000) scale(0.100000,-0.100000)"
fill="#000000" stroke="none">
<path d="M2000 1335 l0 -735 310 0 310 0 0 90 0 90 -175 0 -174 0 -7 36 c-4
20 -5 303 -2 628 2 325 2 599 0 609 -3 15 -18 17 -133 17 l-129 0 0 -735z"/>
<path d="M2610 1975 l0 -95 115 0 115 0 0 -640 0 -640 135 0 135 0 0 640 0
640 115 0 115 0 0 95 0 95 -365 0 -365 0 0 -95z"/>
<path d="M770 1553 c-24 -9 -70 -55 -87 -87 -18 -34 -11 -83 17 -119 l20 -26
-22 -16 c-34 -23 -144 -55 -194 -55 -120 0 -187 39 -205 121 -13 55 -32 85
-59 92 -36 9 -64 -30 -91 -123 -20 -73 -24 -103 -21 -212 4 -228 4 -252 -3
-293 -8 -49 9 -69 75 -85 27 -7 260 -15 586 -21 524 -10 545 -10 660 10 150
25 272 65 316 101 30 25 33 33 32 77 -2 67 -33 123 -80 150 -22 11 -80 37
-130 56 -112 43 -194 84 -194 97 0 6 -11 10 -24 10 -35 0 -56 10 -56 26 0 9
-11 14 -29 14 -20 0 -36 9 -50 26 -13 17 -26 24 -38 20 -20 -6 -46 11 -56 36
-3 10 -12 15 -21 12 -19 -7 -56 13 -56 31 0 9 -9 15 -23 15 -13 0 -58 28 -103
64 -110 87 -124 93 -164 79z m91 -70 l49 -37 -35 -17 c-19 -9 -54 -33 -77 -54
l-43 -36 -22 28 c-33 41 -29 76 12 118 20 19 43 35 52 35 9 0 38 -17 64 -37z
m109 -98 c19 -10 30 -23 30 -36 0 -17 4 -20 24 -15 32 8 56 -2 56 -23 0 -24
11 -33 25 -21 18 15 45 1 56 -27 7 -18 14 -23 29 -18 30 10 60 -4 60 -27 0
-16 5 -19 21 -15 29 8 69 -9 69 -28 0 -17 -19 -15 -65 5 -247 107 -415 184
-415 191 0 12 32 28 58 29 13 0 36 -7 52 -15z m-123 -61 c9 -26 -193 -142
-319 -183 -37 -13 -70 -27 -73 -32 -3 -5 17 -43 46 -85 l52 -77 -179 6 c-203
7 -194 3 -214 96 -17 80 -7 147 23 155 39 10 94 6 133 -10 48 -20 94 -20 131
-1 15 8 62 20 103 26 77 12 168 49 230 95 36 26 60 30 67 10z m156 -69 l97
-45 -27 -55 c-15 -30 -32 -55 -37 -55 -6 0 -49 16 -97 36 -83 34 -87 35 -122
20 -31 -12 -43 -28 -83 -108 -25 -51 -50 -98 -55 -104 -4 -5 -24 -8 -43 -6
-30 3 -40 13 -80 73 -25 38 -46 72 -46 76 0 5 35 21 78 37 87 33 210 100 262
145 19 17 40 30 46 31 6 0 54 -20 107 -45z m423 -112 c-3 -3 -22 -2 -42 2 -26
4 -33 9 -24 15 13 8 75 -8 66 -17z m-140 -9 c46 -17 98 -28 153 -32 91 -5 226
-49 226 -73 0 -19 -39 -26 -231 -43 -233 -21 -263 -29 -319 -78 l-47 -41 -71
17 c-40 9 -95 19 -123 22 -77 10 -79 13 -48 77 16 32 34 57 41 57 7 0 51 -16
97 -35 81 -33 86 -34 120 -20 30 13 43 29 76 95 22 44 44 80 49 80 5 0 40 -12
77 -26z m437 -129 c3 -15 -156 -44 -268 -49 l-100 -5 88 9 c132 13 223 30 244
45 20 15 33 15 36 0z m35 -82 c6 -63 -62 -96 -293 -142 -111 -22 -333 -37
-352 -23 -10 6 -10 12 0 27 12 16 31 18 168 20 117 1 179 7 259 24 109 24 164
49 80 37 -129 -18 -227 -26 -333 -26 -107 0 -118 2 -115 18 5 27 61 39 229 52
85 6 192 19 239 29 109 24 114 23 118 -16z m-435 20 c-13 -2 -33 -2 -45 0 -13
2 -3 4 22 4 25 0 35 -2 23 -4z m-80 -10 c-7 -2 -21 -2 -30 0 -10 3 -4 5 12 5
17 0 24 -2 18 -5z m-803 -23 c239 -13 337 -24 508 -57 108 -21 132 -29 130
-42 -3 -14 -42 -16 -376 -14 -471 2 -563 14 -533 71 6 11 11 30 11 42 0 18 4
20 33 16 17 -3 120 -10 227 -16z m749 18 c-2 -2 -22 -19 -44 -38 l-40 -35 34
38 c19 20 39 37 45 37 5 0 7 -1 5 -2z"/>
<path d="M282 422 c-12 -2 -30 -14 -38 -28 -15 -22 -15 -26 0 -49 10 -14 29
-31 44 -36 40 -15 61 -38 55 -60 -7 -25 -41 -33 -77 -19 -16 6 -31 8 -34 5
-11 -11 17 -27 56 -32 32 -4 44 -1 61 16 37 37 25 71 -37 104 -42 23 -53 33
-50 50 3 19 9 22 51 21 26 0 47 3 47 7 0 11 -52 25 -78 21z"/>
<path d="M2118 419 c-59 -22 -47 -79 23 -114 51 -27 63 -51 34 -75 -12 -10
-24 -10 -54 -1 -53 15 -60 14 -32 -9 33 -28 82 -26 110 4 35 37 22 70 -40 101
-40 21 -50 30 -47 48 3 19 9 22 46 21 47 -1 55 12 16 26 -14 6 -26 10 -27 9
-1 0 -14 -5 -29 -10z"/>
<path d="M2583 416 c-24 -11 -35 -25 -44 -54 -23 -78 9 -148 72 -158 74 -12
129 78 96 157 -24 59 -69 79 -124 55z m88 -33 c8 -9 14 -39 14 -70 0 -45 -4
-58 -24 -74 -31 -25 -47 -24 -76 6 -30 29 -34 97 -9 133 19 27 75 30 95 5z"/>
<path d="M475 398 c-9 -36 -1 -188 10 -188 6 0 12 37 15 81 l5 82 50 -84 c28
-46 55 -84 60 -84 6 0 11 44 13 108 2 69 -1 107 -8 107 -6 0 -10 -35 -10 -92
l0 -92 -52 89 c-29 49 -58 90 -65 92 -7 3 -15 -6 -18 -19z"/>
<path d="M750 310 l0 -111 63 3 c71 3 80 21 13 26 -48 3 -60 17 -50 58 5 20
12 24 45 24 21 0 39 5 39 10 0 6 -18 10 -39 10 -42 0 -57 17 -46 51 5 15 16
19 51 19 24 0 44 5 44 10 0 6 -27 10 -60 10 l-60 0 0 -110z"/>
<path d="M1025 408 c-2 -7 -18 -51 -35 -97 -16 -47 -30 -91 -30 -98 0 -26 19
-12 30 22 11 33 14 35 56 35 36 0 44 -3 44 -18 0 -24 25 -58 33 -45 10 16 -64
213 -80 213 -7 0 -16 -6 -18 -12z m44 -100 c1 -14 -7 -18 -30 -18 -33 0 -33 4
-6 74 l11 29 12 -34 c7 -19 13 -42 13 -51z"/>
<path d="M1222 313 c2 -64 7 -108 13 -108 6 0 11 16 13 35 3 32 26 70 41 70 3
0 19 -22 34 -50 29 -52 42 -66 51 -52 2 4 -11 32 -30 62 -18 30 -34 60 -34 67
0 6 12 26 26 43 47 55 14 47 -37 -10 l-48 -55 -1 53 c0 40 -4 52 -15 52 -13 0
-15 -16 -13 -107z"/>
<path d="M1474 407 c-3 -8 -3 -56 -2 -108 l3 -94 63 -3 c51 -2 62 0 62 13 0
11 -12 15 -50 15 l-50 0 0 40 0 40 40 0 c22 0 40 5 40 10 0 6 -18 10 -40 10
-39 0 -40 1 -40 35 l0 35 50 0 c28 0 50 5 50 10 0 16 -120 13 -126 -3z"/>
<path d="M1710 310 c0 -62 4 -110 9 -110 6 0 11 21 13 47 4 68 29 70 69 4 45
-73 71 -69 28 4 l-22 36 22 23 c11 12 21 34 21 48 0 42 -24 58 -86 58 l-54 0
0 -110z m108 74 c21 -38 -14 -72 -65 -62 -18 3 -29 38 -19 64 8 20 73 18 84
-2z"/>
<path d="M2295 410 c3 -5 19 -10 35 -10 l29 0 3 -97 c4 -127 22 -125 26 2 l3
95 29 0 c17 0 30 5 30 10 0 6 -34 10 -81 10 -51 0 -78 -4 -74 -10z"/>
<path d="M2824 407 c-3 -8 -3 -56 -2 -108 3 -99 19 -127 28 -49 7 63 29 63 68
0 39 -62 63 -58 27 4 -25 43 -25 44 -6 57 31 22 37 63 12 88 -25 25 -118 30
-127 8z m110 -29 c17 -27 -5 -52 -48 -56 l-36 -3 0 41 0 41 36 -3 c22 -2 42
-10 48 -20z"/>
<path d="M3079 375 c0 -25 -1 -70 -1 -100 0 -30 1 -60 1 -65 1 -16 113 -8 119
8 2 8 -11 12 -47 12 l-51 0 0 40 0 40 40 0 c22 0 40 5 40 10 0 6 -18 10 -40
10 -39 0 -40 1 -40 35 l0 35 50 0 c28 0 50 5 50 10 0 6 -27 10 -60 10 l-60 0
-1 -45z"/>
</g>
</svg>
